<svg viewBox="0 0 500 500" xmlns="http://www.w3.org/2000/svg" xml:space="preserve" style="fill-rule:evenodd;clip-rule:evenodd;stroke-linejoin:round;stroke-miterlimit:2"><path d="M.239-.341a.52.52 0 0 1 .176.001l.036.008a.479.479 0 0 1 .113.043.346.346 0 0 1 .35.111c.01.014.019.03.027.046a.354.354 0 0 1-.046.335.328.328 0 0 1-.394.044.367.367 0 0 1-.096-.076.366.366 0 0 1-.098-.178.527.527 0 0 0-.05-.11.252.252 0 0 0-.117-.085.257.257 0 0 0-.177-.001.515.515 0 0 1 .276-.138Z" style="fill:url(#a);fill-rule:nonzero" transform="scale(-448.79372 448.79372) rotate(61.014 -.623 -.624)"/><path d="M1.005.224.997.219A1.156 1.156 0 0 0-.02.04a.885.885 0 0 0 .187-.105c.039-.027.067-.063.097-.082a.474.474 0 0 1 .607.073c.101.1.169.223.203.355a.949.949 0 0 0-.069-.057Z" style="fill:url(#b);fill-rule:nonzero" transform="scale(79.67243 -79.67243) rotate(53.163 3.046 3.5)"/><path d="M1.077.392A.627.627 0 0 1 .773.42a.407.407 0 0 1-.04-.174V.231A.573.573 0 0 0 .64-.078a.567.567 0 0 0-.123-.151.525.525 0 0 0-.629-.064.577.577 0 0 1 .395-.145.575.575 0 0 1 .551.491.282.282 0 0 0 .356.286.684.684 0 0 1-.113.053Z" style="fill:url(#c);fill-rule:nonzero" transform="scale(281.741 -281.741) rotate(48.813 2.045 .168)"/><path d="M0 2.504A45.01 45.01 0 0 0-2.351.4a44.495 44.495 0 0 1-12.885-23.684 44.61 44.61 0 0 1-.373-14.915c-8.383 7.104-13.971 17.154-15.449 28.207a44.67 44.67 0 0 0 .438 14.465c4.16 21.392 22.93 36.23 43.944 36.18a44.643 44.643 0 0 0-.439-14.465A44.5 44.5 0 0 0 0 2.504" style="fill:#ffba06;fill-rule:nonzero" transform="translate(206.459 340.508) scale(3.86064)"/><defs><linearGradient id="a" x1="0" y1="0" x2="1" y2="0" gradientUnits="userSpaceOnUse" gradientTransform="matrix(1 0 0 -1 0 -.028)"><stop offset="0" style="stop-color:#ffbf00;stop-opacity:1"/><stop offset=".43" style="stop-color:#ffbf00;stop-opacity:1"/><stop offset=".8" style="stop-color:#ff8d00;stop-opacity:1"/><stop offset="1" style="stop-color:#ff8d00;stop-opacity:1"/></linearGradient><linearGradient id="b" x1="0" y1="0" x2="1" y2="0" gradientUnits="userSpaceOnUse" gradientTransform="matrix(1 0 0 -1 0 .028)"><stop offset="0" style="stop-color:#ffbf00;stop-opacity:1"/><stop offset=".43" style="stop-color:#ffbf00;stop-opacity:1"/><stop offset="1" style="stop-color:#fff8e7;stop-opacity:1"/><stop offset="1" style="stop-color:#fff8e7;stop-opacity:1"/></linearGradient><linearGradient id="c" x1="0" y1="0" x2="1" y2="0" gradientUnits="userSpaceOnUse" gradientTransform="matrix(1 0 0 -1 0 -.005)"><stop offset="0" style="stop-color:#ff5b00;stop-opacity:1"/><stop offset=".31" style="stop-color:#ff5b00;stop-opacity:1"/><stop offset=".88" style="stop-color:#f3ae2c;stop-opacity:1"/><stop offset="1" style="stop-color:#f3ae2c;stop-opacity:1"/></linearGradient></defs></svg>